<?xml version="1.0" encoding="UTF-8" standalone="no"?>
<!DOCTYPE svg PUBLIC "-//W3C//DTD SVG 1.1//EN" "http://www.w3.org/Graphics/SVG/1.1/DTD/svg11.dtd">
<svg width="100%" height="100%" viewBox="0 0 1358 213" version="1.1" xmlns="http://www.w3.org/2000/svg" xmlns:xlink="http://www.w3.org/1999/xlink" xml:space="preserve" xmlns:serif="http://www.serif.com/" style="fill-rule:evenodd;clip-rule:evenodd;stroke-linejoin:round;stroke-miterlimit:2;">
    <g transform="matrix(1,0,0,1,-281.076,-342.93)">
        <g transform="matrix(1,0,0,1,-371.702,-646.111)">
            <path d="M723.278,1194.84L756.878,995.641L730.778,995.641L705.878,1152.84L704.678,1152.84L679.478,995.641L652.778,995.641L686.678,1194.84L723.278,1194.84Z" style="fill:rgb(60,130,247);fill-rule:nonzero;"/>
            <path d="M858.278,1194.84L858.278,1170.54L810.278,1170.54L810.278,1102.74L851.978,1102.74L851.978,1078.14L810.278,1078.14L810.278,1019.94L855.878,1019.94L855.878,995.641L783.878,995.641L783.878,1194.84L858.278,1194.84Z" style="fill:rgb(60,130,247);fill-rule:nonzero;"/>
            <path d="M912.878,1194.84L912.878,1108.14L937.178,1108.14C950.078,1108.14 953.978,1113.54 953.978,1126.44L953.978,1194.84L980.378,1194.84L980.378,1128.54C980.378,1108.74 973.478,1099.14 959.378,1096.44L959.378,1095.24C972.278,1091.94 979.778,1081.14 979.778,1062.84L979.778,1035.54C979.778,1010.34 969.878,995.641 941.978,995.641L886.478,995.641L886.478,1194.84L912.878,1194.84ZM953.678,1065.24C953.678,1080.54 947.078,1085.64 936.278,1085.64L912.878,1085.64L912.878,1019.94L935.978,1019.94C948.578,1019.94 953.678,1026.24 953.678,1038.54L953.678,1065.24Z" style="fill:rgb(60,130,247);fill-rule:nonzero;"/>
            <path d="M1109.08,1194.84L1071.88,1074.54L1109.38,995.641L1082.08,995.641L1038.88,1085.04L1037.68,1085.04L1037.68,995.641L1010.38,995.641L1010.38,1194.84L1037.68,1194.84L1037.68,1136.94L1052.08,1108.74L1053.28,1108.74L1081.78,1194.84L1109.08,1194.84Z" style="fill:rgb(60,130,247);fill-rule:nonzero;"/>
            <path d="M1296.88,1194.84L1296.88,995.641L1257.88,995.641L1257.88,1123.74L1178.68,995.641L1134.58,995.641L1134.58,1194.84L1173.28,1194.84L1173.28,1061.04L1258.48,1194.84L1296.88,1194.84Z" style="fill:rgb(8,79,194);fill-rule:nonzero;"/>
            <path d="M1420.18,1166.04C1385.68,1166.04 1365.58,1145.04 1365.58,1097.94C1365.58,1050.84 1385.08,1025.94 1420.18,1025.94C1454.98,1025.94 1474.18,1050.84 1474.18,1097.94C1474.18,1145.04 1450.18,1166.04 1420.18,1166.04ZM1420.18,1201.74C1481.38,1201.74 1515.28,1166.34 1515.28,1097.94C1515.28,1029.54 1481.38,989.041 1420.18,989.041C1358.98,989.041 1324.48,1029.54 1324.48,1097.04C1324.48,1164.24 1358.98,1201.74 1420.18,1201.74Z" style="fill:rgb(8,79,194);fill-rule:nonzero;"/>
            <path d="M1583.38,1160.94L1583.38,1030.14L1614.28,1030.14C1654.18,1030.14 1669.78,1048.14 1669.78,1093.14C1669.78,1138.14 1654.18,1160.94 1617.88,1160.94L1583.38,1160.94ZM1626.28,1194.84C1677.88,1194.84 1712.38,1153.74 1712.38,1093.14C1712.38,1032.54 1673.98,995.641 1619.98,995.641L1542.88,995.641L1542.88,1194.84L1626.28,1194.84Z" style="fill:rgb(8,79,194);fill-rule:nonzero;"/>
            <path d="M1891.18,1194.84L1891.18,1159.44L1780.48,1159.44L1780.48,1108.14L1877.98,1108.14L1877.98,1073.04L1780.48,1073.04L1780.48,1030.44L1886.38,1030.44L1886.38,995.641L1739.98,995.641L1739.98,1194.84L1891.18,1194.84Z" style="fill:rgb(8,79,194);fill-rule:nonzero;"/>
            <path d="M1964.98,1194.84C1994.68,1194.84 2010.28,1179.24 2010.28,1146.24L2010.28,1041.54C2010.28,1011.24 1994.68,995.641 1964.98,995.641L1915.78,995.641L1915.78,1194.84L1964.98,1194.84ZM1942.18,1170.54L1942.18,1019.94L1961.68,1019.94C1979.38,1019.94 1983.58,1031.94 1983.58,1051.14L1983.58,1138.74C1983.58,1158.54 1979.38,1170.54 1963.18,1170.54L1942.18,1170.54Z" style="fill:rgb(60,130,247);fill-rule:nonzero;"/>
        </g>
    </g>
</svg>
